<?xml version="1.0" encoding="UTF-8"?><svg id="Calque_2" xmlns="http://www.w3.org/2000/svg" viewBox="0 0 348.69 255.85"><defs><style>.cls-1{font-family:KorolevCondensed-Bold, 'Korolev Condensed';font-size:90px;font-weight:700;}.cls-1,.cls-2{fill:#22844e;}.cls-3{fill:#574027;}.cls-4{letter-spacing:0em;}</style></defs><g id="Calque_1-2"><text class="cls-1" transform="translate(145.99 144.66)"><tspan x="0" y="0">UG </tspan><tspan x="0" y="72">U</tspan><tspan class="cls-4" x="44.1" y="72">S</tspan><tspan x="83.16" y="72">TER</tspan></text><path class="cls-3" d="m32.45,203.3c-.04,2.56-.22,5.11-.36,7.66-.16,3.06-.74,6.1-1.27,9.12-.1.57-.15,1.13-.17,1.69-.03,1.27.2,2.56-.64,3.72-.21.29-.12.8-.12,1.21-.01.93,0,1.87,0,3-.73-.43-.84-.96-.97-1.45-.37-1.41-.96-2.73-1.58-4.04-.15-.32-.34-.8-.77-.65-.32.11-.44.55-.42.94,0,.12,0,.25,0,.37.25,3.44-1.06,6.35-3.02,9.06-1.41,1.95-2.78,3.9-4.52,5.61-1.7,1.66-2.84,3.76-3.69,5.99-.52,1.36-1.22,2.63-2.12,3.78-1.32,1.68-1.52,3.67-1.55,5.69,0,.34.03.75-.22.81-.38.09-.51-.36-.58-.67-.18-.77-.06-1.78-.52-2.26-.97-1-1.21-1.73-.07-2.69.15-.13.16-.55-.18-.79-1.11,1.16-2.05,2.55-3.65,3.27-.03-.23-.06-.29-.04-.3,3.62-3.94,5.82-9.05,10.26-12.34,1.05-.78,1.84-1.83,2.15-3.23.25-1.13,1.06-2.06,1.75-2.98.93-1.23,1.54-2.65,2.43-3.9.67-.95.28-2.15.79-3.19,1.1-2.27,1.02-2.32-1.48-2.05-1.49.16-1.56.05-1.03-1.3.98-2.5,2.37-4.83,3.08-7.45.38-1.4.21-2.81.2-4.21-.01-1.13-1.03-.03-1.52-.59,2.37-2.79,1.73-6.42,2.52-9.69,1.11-4.61,2.17-9.21,4.76-13.29.37-.59.56-1.33.7-2.02.39-1.84,1.57-2.99,3.18-3.73,2.63-1.21,5.31-2.34,8.1-3.16.78-.23,1.09-.54,1.02-1.37-.2-2.12-.35-4.23-.72-6.33-.01-.08-.04-.16-.04-.24-.01-7.05-1.24-14.06-.56-21.14.2-2.08.13-4.19.54-6.25.2-1.02-.1-1.58-1.3-1.44-1.68.2-3.36.58-5.05,0-.53-.18-.57.27-.65.66-.44,2.13-.91,4.25-1.34,6.38-.73,3.67-2.63,6.86-4.06,10.25-.43,1.03-.91,2.06-1.55,2.97-1.25,1.78-1.68,3.84-2.28,5.86-.1.32-.22.63-.35.93-.11.24-.3.43-.58.38-.34-.06-.27-.36-.28-.6-.01-1.5.51-2.98.13-4.6-1.02.85-1.01,2.05-1.07,3.1-.06,1.18-.42,2.02-1.35,2.76-1.07.85-2.05,1.82-2.87,2.93-1.43,1.93-3.6,3.05-5.2,4.8-1.77,1.94-2.96,4.23-4.14,6.53-.39.77-.91,1.34-1.66,1.75-1.55.84-2.23,2.35-2.86,3.88-.13.31-.24.62-.35.93-.11.29-.26.56-.63.4-.36-.15-.27-.51-.19-.76.18-.6.46-1.17.65-1.77.1-.3.22-.71-.11-.9-.26-.15-.62-.13-.9.18-.21.23-.52.37-.8.53-.26.15-.45.73-.76.42-.4-.4.11-.71.37-1.01.8-.88,1.6-1.76,2.39-2.64.21-.24.47-.5.55-.79.85-3.17,3.7-4.58,5.87-6.55,1.31-1.19,2.61-2.35,3.72-3.75,2.02-2.53,4.13-4.98,5.87-7.73.59-.94.42-1.5-.18-2.18-.6-.68-1.3-.52-2.02-.24-.21.08-.38.37-.72.12.21-.98,1.03-1.56,1.64-2.23,1.7-1.9,2.73-4.2,3.89-6.41.56-1.06.26-1.47-.99-1.65-.29-.04-.66-.02-.69-.32-.02-.18.28-.48.5-.6,1.32-.73,2.37-1.89,2.62-3.22.6-3.19,3.28-4.91,4.82-7.41.83-1.35,1.58-2.82,3.12-3.63.85-.45.82-1.47,1.08-2.23.26-.76.74-1.19,1.36-1.4,2.12-.73,4.27-1.37,6.41-2.03.58-.18,1.14-.34,1.61-.8.77-.75.81-1.46.09-2.22-.89-.93-1.93-1.7-2.87-2.59-.52-.49-1.5-.19-2.28-.06-1.1.19-2.17.17-3.28-.05-1.53-.3-2.44-1.11-2.87-2.57-.1-.35-.27-.69-.67-.84-3.51-1.35-6.18-3.96-8.77-6.47-1.41-1.36-2.35-3.17-4.33-3.94-.57-.22-.38-.73-.07-1.14.38-.5.2-.76-.35-.97-1.4-.55-2.29-1.44-1.98-3.11.11-.57-.09-1.06-.78-.94-1.17.2-1.2-.51-.9-1.21.43-1,.01-1.14-.82-1.06-.85.08-1.53.14-.81-1.07.44-.75-.09-1.52-.55-2.13-.4-.55-1.07-.3-1.62-.21-.47.08-1,.52-1.37.04-.39-.51-.03-1.11.2-1.64.14-.33.33-.67.59-.92.7-.69,1.6-1.21.49-2.38-.41-.43,1.14-1.51,2.15-1.41.53.05,1.01.43,1.75.18-.94-1.09-1.35-2.65-2.16-3.47-1.41-1.44-1.79-3.15-2.48-4.8-.95-2.27-2.48-4.1-4.13-5.86-1.36-1.45-2.62-2.94-2.8-5.08-.07-.75-.92-1.02-1.46-1.43-.55-.42-1.21-.69-1.7-1.29.59-.36.97.05,1.37.25,1.7.84,3.15.04,3.34-1.84.03-.31-.22-.91.42-.77.35.08.51.45.46,1.02-.12,1.4-.43,2.99,1.41,3.71.56.22.58.85.62,1.26.29,2.66,1.49,4.98,2.53,7.37.76,1.76,2.31,2.96,3.27,4.6.54.92.83,1.95,1.46,2.83.81,1.12,1.93,1.93,2.88,3.08.3-.66.02-1.27.14-1.85.04-.19-.07-.44.18-.53.23-.08.4.09.53.24.13.15.27.34.3.52.39,2.48,1.96,4.47,2.8,6.76,1.75,4.75,4.55,8.94,7.21,13.2.99,1.58,2.04,3.12,2.79,4.84.11.25.2.56.6.52.34-.03.52-.22.58-.54.33-2.03,1.98-2.67,3.6-3.09,1.17-.31,1.36-.95,1.13-1.83-.47-1.77-.17-3.57-.43-5.36-.48-3.39-.4-6.84-.72-10.26-.22-2.31,0-4.69.22-7.01.11-1.21,1.05-1.99,2.3-2.2.96-.17,1.77-.51,2.33-1.37.43-.66.44-1.17-.23-1.66-2.23-1.62-2.72-3.35-2.26-6.06.19-1.14.79-2.44-.32-3.69-.7-.78-.48-2.06-.34-3.09.28-2.06.82-4.09.65-6.2-.06-.77-.26-1.54.09-2.34.28-.63-.24-.64-.69-.57-1.5.23-2.89.75-4.15,1.59-2.01,1.33-4.03,2.64-5.98,4.03-1.52,1.08-3.2,1.69-4.99,2.05-1.01.2-1.63-.51-2.17-1.17-1.25-1.5-2.32-3.15-3.65-4.56-3.39-3.56-6.12-7.6-8.88-11.63-.72-1.04-.98-2.08-.41-3.24.34-.68.62-1.37,1.66-1.34,1.14.03,1.87.65,2.41,1.45.46.68.03,1.43-.42,2.05-.28.39-.98.87-.76,1.14.37.43.96-.12,1.44-.29.27-.1.53-.26.81-.32.32-.07.66-.11.9.23.23.33-.05.55-.15.79-.23.59-1.17.95-.86,1.64.3.66,1.13.23,1.72.32.93.14.75.78.32,1.09-1.02.73-.56,1.42-.14,2.17,1.37,2.42,3.24,4.46,5.02,6.56,1.85,2.18,1.89,2.1,4.58.97,3.72-1.55,7.32-3.39,11.27-4.35,1.09-.27,2.17-.51,3.3-.47.76.03,1.38-.25,1.99-.74.84-.68.63-1.38,0-1.87-.8-.63-1.08-1.48-1.44-2.33-1.67-3.92-2.54-8.1-3.62-12.19-.58-2.18-.71-4.54-.91-6.85-.28-3.14-.02-6.27-.24-9.39.19-1.36.39-2.72.58-4.09.38-2.73,1.1-5.38,2.28-7.86,1.54-3.22,3.67-6.05,5.91-8.83,2.38-2.96,5.17-5.27,8.68-6.7C54.47,1.05,56.61.03,59.03.01c.48,0,1.04-.14,1.24.52.19.63-.05,1.15-.51,1.55-1.04.89-2.09,1.75-3.15,2.61-2.88,2.33-5.49,4.89-7.49,8.03-.12.18-.23.37-.35.55-.36.53-.77,1.03-.95,1.67-.26.08-.2.32-.25.5-1.11,1.84-1.69,3.87-1.93,5.97-.17,1.45-.06,1.47,1.37,1.13,2.62-.63,5.27-.97,7.98-.86.69.03,1.26.21,1.55.83.34.74-.24,1.16-.71,1.55-.57.47-1.18.89-1.81,1.29-2.39,1.52-4.65,3.24-6.93,4.93-.68.5-.85,1.1-.61,1.94.49,1.7,1.07,3.36,1.77,4.99,1.79,4.16,5.15,6.74,8.91,8.93.89.52,1.73,1.14,2.55,1.77.65.5.54.97-.13,1.43-.92.62-2.01.69-3.04.97-.53.15-1.24-.09-1.42.7-.17.77.16,1.4.79,1.83,1.48,1,3.05,1.86,4.39,3.05.4.35.64.21.81-.26.12-.35.31-.68.52-.99.87-1.33,1.3-1.42,2.58-.5.97.7,1.83,1.65,2.9,2.11,3.79,1.65,7.62,3.19,11.61,4.34,1.18.34,2.51-.08,3.56.77-.03.08,0,.15.05.21,0,.17.01.33.02.5-.02.83-.05,1.66-.05,2.49,0,50.3,0,100.6-.01,150.9,0,2.33-.14,4.67-.25,7-.05,1.12.18,2.2.26,3.3.09,1.31-.58,1.77-1.85,1.45-5.68-1.43-10.8-4.09-15.97-6.8-6.21-3.25-10.11-8.44-13.58-14.15-2.21-3.63-4.12-7.41-5.17-11.57-.23-.92-.41-1.85-.64-2.78-.39-1.63-.71-1.94-2.4-2.05-2.18-.14-4.32.04-6.25,1.18-.49.29-1.01.36-1.55.35-.12-.02-.24-.05-.36-.07-.62-.07-1.26-1.12-1.85.05-.08,3.99-.15,7.97-.23,11.96Z"/><path class="cls-2" d="m111.63,24.39l-.38-.71c.1-.99.75-1.21,1.62-1.25,2.78-.12,5.48.43,8.16,1.04.35.08.67.38,1,.03.33-.34.31-.73.04-1.12-.08-.12-.08-.31-.1-.47-.2-2.72-1.21-5.15-2.66-7.42-.11-.31-.24-.6-.52-.8-.3-.59-.59-1.19-1.2-1.53l-.02-.02c-.3-1.15-1.54-1.49-2.1-2.41-.81-1.17-1.76-2.2-2.98-2.95-.53-.19-.63-.92-1.25-1.01-.86-.98-1.91-1.75-2.93-2.54-.42-.57-1.26-1.07-.7-1.88.44-.63,1.25-.76,2.02-.53,2.35.7,4.66,1.52,6.85,2.61,5.82,2.9,9.52,7.89,12.67,13.28,2.81,4.81,3.37,10.25,3.79,15.69.12,1.58-.17,3.13-.27,4.69-.18,2.73-.3,5.49-.81,8.16-.85,4.49-2.23,8.86-3.7,13.19-.32.94-.67,1.98-1.54,2.46-.84.47-.61.92-.26,1.39,2.39,3.19,3.47,7.06,5.53,10.44,2.49,4.09,2.84,8.84,2.98,13.47.23,7.47.09,14.94.09,22.41,0,3.54-.22,7.04-.97,10.54-1.19,5.54-4.11,9.59-9.27,12,.17.29.42.48.72.65,3.53,1.91,6.03,4.79,7.52,8.46,1.53,3.77,1.98,7.78,1.99,11.82.03,8.92,0,17.85.01,26.77,0,5.32-.14,10.61-1.22,15.86-.55,2.68-1.28,5.26-2.3,7.78-1.08,2.65-2.49,5.14-3.77,7.7-.33.45-.99.74-.75,1.48-1.17.75-1.68,2.04-2.54,3.05-1.64,1.68-3.3,3.35-5.16,4.79-.42.31-.84.62-1.26.94-.16.11-.32.21-.49.32-.83.49-1.67.97-2.5,1.46-2.81,1.64-5.81,2.85-8.93,3.75-4.02,1.16-8.14,1.35-12.29,1.34-1.41,0-2.82,0-4.23,0-1.94.02-1.94.02-2.02-1.86-.21-.87.04-1.73.04-2.6,0-49.85,0-99.69,0-149.54,0-3.61,0-7.22,0-10.83,0-.61-.1-1.09.87-1.27,1.8-.35,3.6-.74,5.34-1.44,3.33-1.35,6.72-2.56,9.64-4.73,1.57-1.17,1.75-1.1,2.93.34.37.45.3,1.43,1.05,1.34.48-.05.88-.72,1.35-1.06,1.13-.81,2.28-1.6,3.42-2.4.59-.41.69-1.01.58-1.65-.11-.62-.66-.46-1.09-.56-.88-.2-1.75-.47-2.61-.75-.47-.15-1-.35-1.09-.9-.1-.6.35-1,.8-1.3.81-.56,1.62-1.13,2.48-1.61,4.69-2.59,7.99-6.3,9.55-11.48.88-2.92.9-2.91-1.26-4.72-.16-.13-.29-.29-.43-.44l-.83-.49c-.04-.33-.3-.23-.49-.26-.71-1.11-1.95-1.56-2.94-2.32-.81-.62-1.68-1.17-2.52-1.74-.22-.23-.44-.45-.67-.68Zm8.07,64.57c0-1.33,0-2.66,0-3.99.07-3.38-1.01-6.14-4.23-7.71-1.99-.97-4.12-.58-6.21-.59-1.33,0-2.65-.01-3.98,0-2.4,0-2.42.01-2.42,2.46.01,14.9.04,29.8.04,44.7,0,.66.24.77.79.76,2.45-.02,4.9,0,7.35-.05,3.47-.08,6.02-1.69,7.58-4.78.81-1.6,1.01-3.37,1.11-5.14.3-2.06,0-4.13,0-6.19.02-6.49-.02-12.98-.03-19.47Zm-4.52,49.99c-1.13-.66-2.37-1.07-3.65-1.12-2.53-.1-5.07-.06-7.61-.07-.81,0-1.06.34-1.06,1.2.03,12.16-.01,24.33.01,36.49.03,11.62-.13,23.24.08,34.87.01.66.08.62.6.48,2.93-.77,5.48-2.24,7.76-4.19,2.91-2.49,4.85-5.64,6.07-9.21.67-1.97,1.65-3.88,1.62-6.04.48-.8.28-1.73.49-2.59.36-1.54.25-3.14.26-4.71.03-11.13.05-22.25.1-33.38,0-1.89.11-3.78-.37-5.64-.66-2.58-1.81-4.79-4.3-6.07Z"/><path class="cls-2" d="m246.9,146.85c-.22-.63-.48-1.24-.66-1.89-.46-1.63-.54-3.32-.49-5.02.07-2.4.45-4.75.88-7.09.18-.98.28-1.98.13-2.97-.36-2.37-2.92-3.32-4.57-1.73-1.01.97-1.32,2.5-.79,3.87.03.07.05.13.06.21-.5-.51-.77-1.16-.84-1.92-.22-2.55,1.57-4.24,3.25-4.48,2.43-.35,4.43,1.57,4.57,4.34.06,1.34-.17,2.64-.49,3.92-.38,1.54-.82,3.07-1.15,4.63-.57,2.68-.58,5.36.17,8.02,0,.03,0,.05,0,.08-.03.01-.05.02-.08.03Z"/><path class="cls-2" d="m256.7,140.27c.1-.42.24-.84.3-1.27.22-1.66-.89-3.27-2.44-3.58-1.43-.29-2.84.75-3.13,2.37-.2,1.09-.08,2.19.11,3.28.32,1.9.65,3.8.6,5.75-.03,1.21-.23,2.38-.61,3.51-.03.09-.07.17-.12.25.17-2.69-.41-5.24-1.07-7.78-.36-1.38-.65-2.79-.63-4.24.03-2.18.99-3.78,2.67-4.48,2.07-.86,4.45.39,5.05,2.68.3,1.14.2,2.24-.48,3.21-.08.11-.17.2-.24.29Z"/><path class="cls-2" d="m235.68,141.51c-.66-.64-.9-1.49-.86-2.45.09-1.98,1.53-3.63,3.32-3.89,2-.3,4.41,1.31,4.52,4.33.05,1.32-.17,2.6-.48,3.86-.3,1.2-.64,2.39-.92,3.59-.38,1.64-.57,3.3-.54,5.02-.11-.4-.24-.79-.33-1.19-.34-1.5-.39-3.02-.18-4.55.2-1.46.47-2.91.7-4.37.14-.89.22-1.8.07-2.68-.2-1.21-.87-2.01-1.91-2.34-1.11-.35-2.09-.02-2.89.91-.82.95-1.03,2.34-.57,3.55.03.07.06.14.09.21Z"/></g></svg>